<svg xmlns="http://www.w3.org/2000/svg" viewBox="0 0 508 508"><circle cx="254" cy="254" r="254" fill="#90dfaa"/><path d="M68 427.2c46.4 49.6 112.4 80.8 186 80.8s139.6-31.2 186-80.8H68z" fill="#2c9984"/><path d="M274 133.6h-40V97.2c0-1.2 1.2-2.4 2.4-2.4h35.2c1.2 0 2.4 1.2 2.4 2.4v36.4z" fill="#fff"/><g fill="#e6e9ee"><path d="M234 108.4h40v25.2h-40zM324.8 335.6H296l30.4 91.6h28.8z"/></g><path fill="#ced5e0" d="M333.6 362.4l-8.8-26.8H296l8.8 26.8z"/><path fill="#e6e9ee" d="M183.2 335.6H212l-30.4 91.6h-28.8z"/><path fill="#ced5e0" d="M174.4 362.4l8.8-26.8H212l-8.8 26.8z"/><path d="M395.6 321.2H112.4c-8.4 0-15.6-6.8-15.6-15.6V128.4c0-8.4 6.8-15.6 15.6-15.6h282.8c8.4 0 15.6 6.8 15.6 15.6V306c0 8.4-6.8 15.2-15.2 15.2z" fill="#fff"/><path fill="#324a5e" d="M112.4 306V128.4h283.2V306z"/><path d="M422.8 321.2H85.2c-1.2 0-2 .8-2 2v19.2c0 1.2.8 2 2 2h338c1.2 0 2-.8 2-2v-19.2c-.4-1.2-1.2-2-2.4-2z" fill="#e6e9ee"/><g fill="#fff"><path d="M176.8 221.2v-8h10v8h5.2v8.8h-5.2v11.2h-10V230H158v-8l16.4-27.2h11.2L170 221.2h6.8zM209.2 234v-12h-11.6v-8h11.6v-12h9.2v12H230v8h-11.6v12h-9.2zM254.4 221.2v-8h10v8h5.2v8.8h-5.2v11.2h-10V230h-18.8v-8l16.4-27.2h11.2l-15.6 26.4h6.8zM275.6 205.6H308v8h-32.4v-8zm0 16.4H308v8h-32.4v-8zM320.8 197.6c3.2-2.4 6.8-3.6 11.6-3.6 4.4 0 8.4 1.2 11.6 3.6 3.2 2.4 4.4 5.6 4.4 8.8 0 3.6-1.2 6.8-4 9.2 4 2.8 5.6 6.8 5.6 11.6 0 4-1.6 7.6-4.8 10.4-3.2 2.8-7.6 4-12.8 4-5.2 0-9.6-1.2-12.8-4-3.2-2.8-4.8-6.4-4.8-10.4 0-4.8 2-8.8 5.6-11.6-2.8-2.8-4-5.6-4-9.2 0-3.6 1.2-6.4 4.4-8.8zm6.4 34c1.6 1.2 3.2 1.6 5.2 1.6s3.6-.4 5.2-1.6c1.6-1.2 2.4-2.4 2.4-4.4s-.8-3.6-2.4-4.4c-1.6-1.2-3.2-1.6-5.2-1.6s-3.6.4-5.2 1.6c-1.6 1.2-2.4 2.4-2.4 4.4 0 1.6.8 3.2 2.4 4.4zm.8-20.4c1.2 1.2 2.8 1.6 4.4 1.6s3.2-.4 4.4-1.6c1.2-1.2 2-2.4 2-4s-.8-2.8-2-4-2.8-1.6-4.4-1.6-3.2.4-4.4 1.6c-1.2 1.2-2 2.4-2 4s.8 2.8 2 4z"/></g></svg>