<svg xmlns="http://www.w3.org/2000/svg" viewBox="0 0 508 508"><circle cx="254" cy="254" r="254" fill="#54c0eb"/><path d="M388.8 300.4H148.4c-21.6 0-38.8 17.6-38.8 38.8 0 21.6 17.6 38.8 38.8 38.8h240.4v-77.6z" fill="#fff"/><path d="M390 384.4H148.4c-24.8 0-44.8-20-44.8-44.8s20-44.8 44.8-44.8H390c3.2 0 6 2.8 6 6s-2.8 6-6 6H148.4c-18.4 0-33.2 14.8-33.2 33.2s14.8 33.2 33.2 33.2H390c3.2 0 6 2.8 6 6 0 2.4-2.8 5.2-6 5.2z" fill="#ff7058"/><path d="M408 210.4H167.6c-21.6 0-38.8 17.6-38.8 38.8s17.6 38.8 38.8 38.8H408v-77.6z" fill="#e6e9ee"/><path d="M100 120.8h240.4c21.6 0 38.8 17.6 38.8 38.8s-17.6 38.8-38.8 38.8H100v-77.6z" fill="#fff"/><path d="M98.8 204.8h241.6c24.8 0 44.8-20 44.8-44.8s-20-44.8-44.8-44.8H98.8c-3.2 0-6 2.8-6 6s2.8 6 6 6h241.6c18.4 0 33.2 14.8 33.2 33.2s-14.8 33.2-33.2 33.2H98.8c-3.2 0-6 2.8-6 6s2.8 5.2 6 5.2z" fill="#ffd05b"/><path d="M409.2 294.4H167.6c-24.8 0-44.8-20-44.8-44.8s20-44.8 44.8-44.8h241.6c3.2 0 6 2.8 6 6s-2.8 6-6 6H167.6c-18.4 0-33.2 14.8-33.2 33.2s14.8 33.2 33.2 33.2h241.6c3.2 0 6 2.8 6 6 0 2.4-2.8 5.2-6 5.2z" fill="#324a5e"/><path fill="#4cdbc4" d="M359.2 235.2v57.2l-16.8-18-18.4 20v-59.2z"/><path fill="#324a5e" d="M191.6 334v57.2l-16.4-18-18.4 20V334z"/><path fill="#ff7058" d="M153.2 141.6v57.2l-16.8-18-18 20v-59.2z"/></svg>