<?xml version="1.0" encoding="iso-8859-1"?>
<!-- Generator: Adobe Illustrator 19.0.0, SVG Export Plug-In . SVG Version: 6.00 Build 0)  -->
<svg version="1.1" id="Capa_1" xmlns="http://www.w3.org/2000/svg" xmlns:xlink="http://www.w3.org/1999/xlink" x="0px" y="0px"
	 viewBox="0 0 512.209 512.209" style="enable-background:new 0 0 512.209 512.209;" xml:space="preserve">
<path style="fill:#CDD6E0;" d="M490.772,374.4H21.438c-11.733,0-21.333-9.6-21.333-21.333V21.333C0.105,9.6,9.705,0,21.438,0
	h469.333c11.733,0,21.333,9.6,21.333,21.333v331.733C512.105,365.867,502.505,374.4,490.772,374.4z"/>
<path style="fill:#F2F2F2;" d="M42.772,289.067V85.333c23.467,0,42.667-19.2,42.667-42.667h341.333
	c0,23.467,19.2,42.667,42.667,42.667v203.733c-23.467,0-42.667,19.2-42.667,42.667H85.438
	C85.438,308.267,66.238,289.067,42.772,289.067z"/>
<rect x="168.64" y="92.8" style="fill:#FF7058;" width="174.93" height="53.33"/>
<g>
	<rect x="95.04" y="187.73" style="fill:#4CDBC4;" width="321.07" height="26.667"/>
	<rect x="95.04" y="256" style="fill:#4CDBC4;" width="321.07" height="26.667"/>
</g>
<path style="fill:#FF7058;" d="M453.438,436.267c-10.667-4.267-22.4-11.733-32-10.667c-14.933,1.067-30.933,24.533-45.867,20.267
	c-5.333-1.067-8.533-5.333-11.733-10.667v69.333c0,5.333,5.333,8.533,9.6,5.333l32-23.467c2.133-1.067,5.333-1.067,7.467,0
	l32,24.533c4.267,3.2,9.6,0,9.6-5.333L453.438,436.267z"/>
<path style="fill:#F8B64C;" d="M492.905,390.4c0,8.533-13.867,14.933-16,22.4c-2.133,7.467,4.267,21.333,0,27.733
	c-5.333,6.4-19.2,4.267-25.6,8.533c-6.4,4.267-8.533,19.2-16,22.4c-7.467,2.133-18.133-8.533-25.6-8.533
	c-8.533,0-18.133,10.667-25.6,8.533c-7.467-2.133-9.6-17.067-16-22.4s-21.333-2.133-25.6-8.533s2.133-19.2,0-27.733
	c-2.133-7.467-16-13.867-16-22.4s13.867-14.933,16-22.4c2.133-7.467-4.267-21.333,0-27.733c5.333-6.4,19.2-4.267,25.6-8.533
	c6.4-4.267,8.533-19.2,16-22.4c7.467-2.133,18.133,8.533,25.6,8.533c8.533,0,18.133-10.667,25.6-8.533s9.6,17.067,16,22.4
	s21.333,2.133,25.6,8.533s-2.133,19.2,0,27.733C479.038,375.467,492.905,381.867,492.905,390.4z"/>
<path style="fill:#FFD15C;" d="M461.972,390.4c0,28.8-22.4,52.267-51.2,53.333c-1.067,0-2.133,0-2.133,0
	c-28.8,0-53.333-23.467-53.333-52.267l0,0V390.4c0-29.867,24.533-53.333,53.333-53.333C437.438,336,461.972,360.533,461.972,390.4z"
	/>
<polygon style="fill:#FFFFFF;" points="395.838,417.067 374.505,394.667 381.972,387.2 395.838,401.067 434.238,363.733 
	441.705,371.2 "/>
<g>
</g>
<g>
</g>
<g>
</g>
<g>
</g>
<g>
</g>
<g>
</g>
<g>
</g>
<g>
</g>
<g>
</g>
<g>
</g>
<g>
</g>
<g>
</g>
<g>
</g>
<g>
</g>
<g>
</g>
</svg>
