<svg width="1832" height="1375" xmlns="http://www.w3.org/2000/svg"><g fill="#FFF" fill-rule="evenodd"><g opacity=".3"><path d="M911.64 321.064C887.238 310.681 583.358 266.551 0 188.676V93c632.162 162.426 936.041 238.448 911.64 228.064z" fill-opacity=".15"/><path fill-opacity=".45" d="M845 332L0 293v39z"/><path fill-opacity=".1" d="M876 342L0 552.912V668z"/><path fill-opacity=".2" d="M913 305L0-156.579V-261z"/><path fill-opacity=".05" d="M0-50l929 362L0-22.31z"/><path fill-opacity=".5" d="M368 1375L927 321 397.6 1375z"/><path fill-opacity=".15" d="M929 333L548 1375h103.746z"/><path fill-opacity=".5" d="M819 1375L928 333l-85.77 1042z"/><path fill-opacity=".3" d="M980.958 1375H1144L929 313z"/><path fill-opacity=".35" d="M1235.508 1375L928 313l370 1062z"/><path fill-opacity=".1" d="M1381.53 1375L929 313l483 1062z"/><path fill-opacity=".2" d="M1511.88 1375H1648L928 304z"/><path fill-opacity=".5" d="M1678.93 1375L929 313l777 1062z"/><path d="M928.378 313c12.574 0 305.906 354 879.997 1062H1832v-119.83C1217.011 627.058 915.804 313 928.378 313z" fill-opacity=".15"/><path fill-opacity=".3" d="M1832 963L929 304l903 625.717z"/><path d="M1832 810V687.939c0-3.7-301-131.679-903-383.939l903 506z" fill-opacity=".25"/><path fill-opacity=".6" d="M1832 479v-37.016L929 304z"/><path fill-opacity=".15" d="M1832 348V237l-903 68.166z"/><path fill-opacity=".5" d="M1832 122.823V81L929 292z"/><path fill-opacity=".6" d="M1832-3.816V-78L929 292z"/><path fill-opacity=".1" d="M1832-93.377V-129L929 284z"/><path fill-opacity=".3" d="M1832-330L929 292l718.824-622z"/><path fill-opacity=".35" d="M1298-330L928 285l333.958-615z"/><path fill-opacity=".15" d="M1172-330L929 292l92.912-622z"/><path fill-opacity=".5" d="M966-330l-36 622v-622z"/><path fill-opacity=".6" d="M894.828-330L928 285l-52-615z"/><path fill-opacity=".05" d="M768.305-330L930 292 648-330z"/><path fill-opacity=".4" d="M587.353-330L929 292 480-330z"/><path fill-opacity=".6" d="M420.684-330L928 304 367-330z"/><path fill-opacity=".15" d="M279.91-330L929 304 87-330z"/><path fill-opacity=".1" d="M872 349L0 901v-39.904z"/><path fill-opacity=".3" d="M911 323L0 1193.2V1375h67.95z"/></g><g fill-rule="nonzero"><path fill-opacity=".3" d="M762.808 173.152l2.843-8.726-7.416 5.396-7.314-5.425 2.812 8.654-7.663 5.54 9.455-.024 2.812 8.655 2.729-8.688 9.168-.004z"/><path d="M632.57 282.06l.487-9.165-5.766 7.131-8.47-3.347 4.956 7.632-5.968 7.334 9.127-2.47 4.956 7.632.387-9.098 8.855-2.376z"/><path fill-opacity=".3" d="M1152.412 563.8l-6.815-6.146 1.913 8.969-7.931 4.475 9.05.952 1.943 9.253 3.825-8.647 9.05.951-6.827-6.027 3.726-8.376z"/><path d="M1196.971 409.857l-3.162-2.87.933 4.269-3.608 2.219 4.155.364.949 4.403 1.7-4.172 4.154.364-3.168-2.812 1.656-4.042zM1152.397 277.668l-3.261-2.757 1.081 4.232-3.528 2.344 4.165.218 1.102 4.368 1.553-4.228 4.165.218-3.264-2.7 1.514-4.097zM937.907 401.658l-2.312-3.59-.203 4.364-4.06 1.21 3.92 1.426-.224 4.5 2.722-3.59 3.919 1.426-2.332-3.536 2.645-3.475zM1058.568 605.202l-2.312-3.59-.204 4.364-4.059 1.21 3.92 1.426-.224 4.5 2.721-3.59 3.92 1.426-2.332-3.536 2.645-3.476zM1250.422 464.46l-3.261-2.758 1.082 4.233-3.529 2.344 4.165.218 1.102 4.368 1.553-4.229 4.165.218-3.264-2.7 1.514-4.096zM582.313 147.723l-2.312-3.59-.204 4.365-4.059 1.21 3.92 1.426-.224 4.5 2.721-3.591 3.92 1.427-2.332-3.537 2.645-3.475zM669.977 412.686l-2.312-3.59-.203 4.364-4.06 1.21 3.92 1.426-.223 4.5 2.72-3.59 3.92 1.426-2.332-3.536 2.645-3.476zM795.333 340.188l-2.312-3.59-.204 4.364-4.059 1.21 3.92 1.426-.224 4.5 2.721-3.59 3.92 1.426-2.332-3.536 2.645-3.476zM845.144 334.905l-2.313-3.59-.203 4.364-4.06 1.21 3.92 1.427-.223 4.499 2.721-3.59 3.92 1.426-2.333-3.536 2.645-3.475zM883.844 342.606l-2.313-3.59-.203 4.364-4.06 1.21 3.92 1.426-.223 4.5 2.721-3.59 3.92 1.426-2.333-3.536 2.646-3.475zM1033.974 278.06l-2.313-3.59-.203 4.365-4.06 1.21 3.92 1.426-.223 4.5 2.72-3.59 3.92 1.426-2.332-3.536 2.645-3.476zM846.996 495.012l-5.126-7.612-.314 9.165-8.778 2.424 8.551 3.112-.353 9.45 5.804-7.466 8.55 3.112-5.166-7.5 5.642-7.225z"/><path fill-opacity=".5" d="M821.49 273.812l-7.566-17.42-4.106 18.321L791.01 276l16.25 9.764-4.293 18.877 14.651-12.653 16.25 9.764-7.693-17.21 14.232-12.237z"/><path opacity=".7" d="M921.498 186.29l-1.153-18.958-10.124 15.812-18.114-5.223 11.931 14.733-10.49 16.27 18.095-6.88 11.93 14.734-1.343-18.803 17.559-6.632zM1205.938 103.587l-1.153-18.958-10.124 15.812-18.114-5.223 11.931 14.733-10.49 16.27 18.095-6.88 11.93 14.734-1.343-18.804 17.559-6.632zM1011.094 357.44l-21.69-17.36 7.257 26.577-23.367 14.637 27.641 1.449 7.396 27.424 10.222-26.501 27.64 1.449-21.708-17 9.965-25.674z"/><path fill-opacity=".75" d="M1081.613 241.65l-27.734 1.614 23.176 14.894-7.571 26.513 21.51-17.419 23.847 15.432-10.136-26.534 21.51-17.419-27.507 1.893-9.774-25.747z"/><path opacity=".7" d="M911.41 269.34l-7.626-37.608-15.823 34.492-37.71-5.346 28.007 26.118-16.427 35.51 34.278-18.864 28.008 26.118-7.964-37.246 33.274-18.219z"/><path d="M1022.717 227.462l-7.692-5.005 3.292 8.56-7.133 5.66 9.087-.475 3.367 8.836 2.425-9.14 9.088-.476-7.686-4.885 2.37-8.856zM911.961 43.486l-7.692-5.005 3.292 8.56-7.133 5.661 9.087-.476 3.367 8.836 2.425-9.14 9.088-.476-7.686-4.884 2.37-8.857zM1002.815 256.948l-5.125-7.612-.314 9.165-8.778 2.424 8.55 3.113-.352 9.449 5.803-7.466 8.551 3.113-5.166-7.5 5.641-7.226zM1099.212 400.962l.807-9.141-6.012 6.925-8.347-3.64 4.687 7.8-6.221 7.12 9.208-2.149 4.687 7.8.704-9.079 8.932-2.065zM1096.403 321.437l-3.865-5.654-.202 6.785-6.565 1.764 6.414 2.335-.231 6.995 4.319-5.508 6.413 2.335-3.895-5.57 4.2-5.331zM1021.01 452.56l-3.865-5.655-.202 6.785-6.565 1.764 6.414 2.334-.231 6.995 4.319-5.507 6.413 2.334-3.895-5.57 4.2-5.33zM862.533 139.476l-3.864-5.654-.203 6.785-6.564 1.764 6.413 2.334-.23 6.995 4.318-5.507 6.413 2.334-3.894-5.57 4.199-5.331zM806.753 397.988l-3.864-5.654-.203 6.785-6.564 1.764 6.413 2.334-.231 6.995 4.319-5.507 6.413 2.334-3.894-5.57 4.198-5.33zM1302.378 291.058l-6.562-1.962 4.113 5.4-3.992 5.502 6.454-2.222 4.222 5.582-.11-6.998 6.454-2.222-6.533-1.878-.091-6.786z"/></g><g fill-rule="nonzero"><path fill-opacity=".3" d="M939.112 302.196l4.281.758-3.019-3.128 2.065-3.797-3.876 1.895-3.104-3.235.633 4.443-3.876 1.894 4.256.707.605 4.309z"/><path d="M879.444 248.199l4.332-.378-3.725-2.238 1.014-4.202-3.255 2.835-3.834-2.32 1.759 4.127-3.255 2.835 4.294-.421 1.698 4.004z"/><path fill-opacity=".3" d="M781.43 511.178l2.435-3.61-4.082 1.493-2.622-3.431.149 4.316-4.215 1.526 4.31 1.225.148 4.317 2.38-3.608 4.175 1.196z"/><path d="M856.595 521.924l1.138-1.677-1.941.721-1.279-1.548.103 1.977-2.004.737 2.07.523.102 1.976 1.111-1.675 2.006.51zM915.69 492.219l1.08-1.715-1.915.788-1.332-1.503.172 1.972-1.977.808 2.086.45.172 1.971 1.052-1.713 2.022.44zM843.659 399.734l1.47-1.268-1.978.185-.801-1.75-.394 1.854-2.04.184 1.789.998-.395 1.854 1.445-1.273 1.731.97zM756.122 470.072l1.47-1.268-1.977.184-.802-1.75-.394 1.854-2.04.184 1.789.998-.394 1.854 1.444-1.273 1.731.97zM834.489 550.661l1.08-1.715-1.916.789-1.332-1.503.172 1.972-1.977.807 2.086.45.172 1.971 1.052-1.712 2.022.44zM939.04 215.54l1.47-1.268-1.978.185-.802-1.751-.394 1.854-2.04.185 1.79.997-.395 1.855 1.444-1.274 1.732.971zM820.263 274.125l1.47-1.268-1.977.185-.802-1.75-.394 1.854-2.04.184 1.789.998-.394 1.854 1.444-1.273 1.732.97zM862.957 328.183l1.47-1.268-1.978.185-.8-1.751-.395 1.854-2.04.185 1.789.997-.394 1.855 1.444-1.274 1.731.971zM868.164 351.781l1.47-1.267-1.977.184-.802-1.75-.394 1.854-2.04.184 1.79.998-.395 1.854 1.444-1.273 1.732.97zM867.356 370.012l1.47-1.268-1.977.185-.801-1.751-.395 1.854-2.039.184 1.788.998-.394 1.855 1.444-1.274 1.732.971zM907.347 436.786l1.47-1.268-1.977.184-.802-1.75-.394 1.854-2.04.184 1.789.998-.394 1.854 1.444-1.273 1.732.97zM793.68 363.553l3.234-2.79-4.35.406-1.763-3.851-.867 4.08-4.487.405 3.934 2.195-.867 4.08 3.177-2.802 3.81 2.136z"/><path fill-opacity=".5" d="M895.738 336.443l7.677-4.71-8.867-.717-1.84-8.754-3.514 8.285-9.14-.768 6.901 6.048-3.513 8.284 7.57-4.756 6.678 5.878z"/><path opacity=".5" d="M943.383 377.648l8.82-1.798-8.085-3.71 1.26-8.86-6.13 6.583-8.323-3.852 4.418 8.048-6.13 6.584 8.736-1.877 4.266 7.813z"/><path d="M1000.896 505.852l8.82-1.797-8.085-3.711 1.26-8.86-6.13 6.584-8.323-3.853 4.418 8.049-6.13 6.583 8.736-1.877 4.266 7.813z"/><path opacity=".5" d="M868.967 431.092l6.719-11.343-11.993 5.17-8.405-10.012 1.138 13.087-12.382 5.292 13.107 3.049 1.138 13.087 6.55-11.33 12.701 2.984z"/><path fill-opacity=".75" d="M927.936 456.566l-2.58-12.928-5.465 11.88-12.94-1.803 9.589 8.956-5.673 12.23 11.784-6.522 9.588 8.956-2.697-12.803 11.439-6.298z"/><path opacity=".7" d="M903.75 378.407l17.146-6.075-17.226-5.152.029-18.077-10.414 14.893-17.743-5.369 11.106 14.861-10.413 14.893 16.953-6.21 10.737 14.432z"/><path d="M930.72 427.946l1.843-3.947-3.8 2.115-3.125-2.978.821 4.24-3.925 2.167 4.448.534.821 4.24 1.787-3.936 4.311.527zM972.346 430.661l1.842-3.947-3.8 2.115-3.125-2.978.82 4.24-3.924 2.167 4.448.535.821 4.24 1.787-3.937 4.311.527zM915.58 420.134l3.234-2.79-4.35.406-1.763-3.851-.867 4.08-4.487.404 3.934 2.196-.867 4.08 3.177-2.802 3.81 2.136zM854.34 475.39l4.342-.227-3.645-2.367 1.16-4.164-3.352 2.72-3.751-2.453 1.614 4.186-3.352 2.719 4.307-.27 1.557 4.06zM891.556 469.211l2.416-2.331-3.188.411-1.218-3.104-.71 3.338-3.288.413 2.836 1.715-.71 3.338 2.376-2.34 2.746 1.669zM854.183 380.502l2.416-2.33-3.188.41-1.218-3.103-.71 3.338-3.288.412 2.836 1.715-.71 3.338 2.376-2.34 2.746 1.669zM824.81 441.733l2.416-2.33-3.188.41-1.218-3.103-.71 3.338-3.287.413 2.836 1.714-.71 3.338 2.375-2.34 2.746 1.669zM961.477 347.08l2.416-2.332-3.189.411-1.218-3.103-.709 3.338-3.288.413 2.836 1.714-.71 3.338 2.375-2.34 2.746 1.669zM836.652 337.927l2.416-2.331-3.188.41-1.218-3.103-.71 3.338-3.288.413 2.836 1.715-.71 3.338 2.375-2.34 2.746 1.668zM919.271 563.594l.49-3.213-2.264 2.29-2.844-1.511 1.467 2.885-2.342 2.354 3.277-.514 1.467 2.885.451-3.194 3.178-.493z"/></g></g></svg>