<svg height="458pt"
     viewBox="0 -49 458.672 458"
     width="458pt"
     xmlns="http://www.w3.org/2000/svg">
    <path d="M165.316 361.172c-9.984 0-19.347-3.883-26.386-10.942l-128-128c-14.575-14.55-14.575-38.23 0-52.8l30.164-30.164c14.55-14.575 38.25-14.575 52.8 0l71.422 71.421L364.762 11.266c14.55-14.575 38.25-14.575 52.8 0l30.165 30.164c7.062 7.062 10.945 16.425 10.945 26.39 0 9.961-3.883 19.348-10.945 26.387l-256 256c-7.059 7.063-16.426 10.965-26.41 10.965zm15.082-22.25h.215zM67.484 160.32a5.31 5.31 0 00-3.777 1.559l-30.164 30.164a5.324 5.324 0 000 7.55l128 128c2.004 2.028 5.547 2.028 7.55 0l256-256a5.33 5.33 0 000-7.55L394.93 33.879a5.328 5.328 0 00-7.555 0l-210.75 210.75c-6.25 6.25-16.387 6.25-22.637 0l-82.75-82.73c-1.023-1.067-2.367-1.579-3.754-1.579zm0 0"
          fill="#e0cfc5" />
</svg>