<svg height="458pt"
     viewBox="0 -49 458.672 458"
     width="458pt"
     xmlns="http://www.w3.org/2000/svg">
    <path d="M180.398 338.906c-3.988 4.012-9.43 6.25-15.082 6.25s-11.093-2.238-15.082-6.25L29.785 218.437c-12.5-12.5-12.5-32.769 0-45.25l15.086-15.082c12.5-12.5 32.746-12.5 45.246 0l75.2 75.204L368.515 30.105c12.504-12.5 32.77-12.5 45.25 0l15.082 15.082c12.5 12.504 12.5 32.77 0 45.25zm0 0"
          fill="#6b8e61" />
    <path d="M165.316 361.156c-9.984 0-19.347-3.883-26.386-10.922l-128-128.02c-14.575-14.57-14.575-38.23 0-52.8l30.164-30.168c14.55-14.547 38.25-14.547 52.8 0l71.422 71.445L364.762 11.246c14.55-14.547 38.25-14.547 52.8 0l30.165 30.168c7.062 7.04 10.945 16.426 10.945 26.387 0 9.965-3.883 19.351-10.945 26.39l-256 256.024c-7.059 7.058-16.426 10.941-26.41 10.941zm15.082-22.226h.215zM67.484 160.324a5.31 5.31 0 00-3.777 1.559l-30.164 30.164a5.328 5.328 0 000 7.555l128 128.02c2.004 2.003 5.547 2.003 7.55 0l256-256.02a5.335 5.335 0 000-7.555L394.93 33.883a5.335 5.335 0 00-7.555 0l-210.75 210.75c-6.25 6.254-16.387 6.254-22.637 0l-82.75-82.75c-1.023-1.047-2.367-1.559-3.754-1.559zm0 0"
          fill="#627F59" />
</svg>